Coordinates
version=1
nRows=8
nColumns=36
inDegrees=yes

Units are S.I. units (second, meters, Newtons, ...)
If the header above contains a line with 'inDegrees', this indicates whether rotational values are in degrees (yes) or radians (no).

endheader
time	pelvis_tilt	pelvis_list	pelvis_rotation	pelvis_tx	pelvis_ty	pelvis_tz	hip_flexion_r	hip_adduction_r	hip_rotation_r	knee_angle_r	knee_angle_r_beta	ankle_angle_r	subtalar_angle_r	mtp_angle_r	hip_flexion_l	hip_adduction_l	hip_rotation_l	knee_angle_l	knee_angle_l_beta	ankle_angle_l	subtalar_angle_l	mtp_angle_l	lumbar_extension	lumbar_bending	lumbar_rotation	arm_flex_r	arm_add_r	arm_rot_r	elbow_flex_r	pro_sup_r	arm_flex_l	arm_add_l	arm_rot_l	elbow_flex_l	pro_sup_l
      2.46666670	      9.70328612	      1.17546226	     -1.24783366	     -0.10354169	      0.83266001	      0.32317404	     10.53635345	     10.09583793	      4.79625722	     43.72593562	      0.76316155	     19.71530635	    -17.73101966	     -7.50000017	     30.00721592	     -2.94378387	     -1.09387887	      8.52708314	      0.14882568	     -0.40507108	      6.04482001	     -7.50000017	     -7.30127662	      2.16111787	      3.03490748	     33.87901576	      3.39138853	     56.52342266	    123.50627226	     81.65039259	     42.30842970	     11.64187379	     70.38013943	    126.52685858	     62.59297299
      2.48333330	      9.82020840	      1.06685918	     -0.94214428	     -0.10317279	      0.82711736	      0.32373343	     11.51553283	     10.39247961	      4.48984133	     45.94166662	      0.80183335	     20.63674931	    -18.08630979	     -7.50000016	     30.21893319	     -3.03310445	     -0.83398065	      8.58090325	      0.14976501	     -0.31662020	      5.86464377	     -7.50000016	     -7.57144479	      2.28213688	      2.80269961	     33.68687648	      3.30005333	     55.95563671	    123.48800408	     81.02493050	     42.15051685	     11.67767682	     71.00077778	    127.03104360	     62.56971087
      2.50000000	      9.95193370	      0.99032812	     -0.63526547	     -0.10326341	      0.81922729	      0.32336261	     12.47289340	     10.69541731	      4.13041317	     48.19983443	      0.84124581	     21.68142264	    -18.62887363	     -7.50000010	     30.53320628	     -3.05921545	     -0.42553388	      8.79019299	      0.15341781	     -0.05974513	      5.64468585	     -7.50000010	     -8.03524827	      2.24269991	      2.57607089	     33.33910015	      3.31942839	     55.62167420	    123.92838165	     81.57800564	     42.41979376	     11.79666475	     71.39185152	    126.63419326	     62.72789814
      2.51666670	     10.13625659	      0.96665478	     -0.40907358	     -0.10307251	      0.81348963	      0.32263004	     13.39594660	     10.94717713	      3.94532037	     50.33518966	      0.87851479	     22.52087530	    -19.45609197	     -7.50000010	     30.81791145	     -3.05338004	     -0.16130892	      9.05739804	      0.15808142	      0.18418667	      5.57805865	     -7.50000010	     -8.51775868	      2.16012075	      2.11962624	     33.22123389	      3.56091362	     55.81241775	    124.30188183	     81.72995420	     42.61981738	     11.74190789	     71.44882521	    126.34457220	     62.73958388
      2.53333330	      9.96868525	      0.90738275	     -0.13833761	     -0.10276953	      0.80903757	      0.32255225	     14.49569283	     11.30108694	      3.90888954	     52.15361439	      0.91025229	     23.35896372	    -20.23525819	     -7.50000009	     31.43329323	     -3.07143784	      0.12822344	      9.36803384	      0.16350303	      0.23351603	      5.28889660	     -7.50000009	     -8.53580761	      2.17079951	      1.59687005	     32.77637684	      3.86883674	     56.23735749	    124.59245169	     81.09191952	     42.60568816	     11.68443980	     71.39464348	    125.91827178	     62.64661050
      2.55000000	      9.93123464	      0.79489503	      0.06883532	     -0.10236398	      0.80460448	      0.32373009	     15.32215596	     11.69717752	      3.74586923	     53.72778829	      0.93772681	     23.96228971	    -20.80437699	     -7.50000008	     31.73669831	     -3.18758361	      0.54863192	      9.42813624	      0.16455202	      0.15153492	      5.21564493	     -7.50000008	     -8.68222181	      2.21793395	      1.19550840	     32.51015741	      4.07426038	     56.75700382	    125.06352817	     80.72231268	     42.74377415	     11.63286772	     71.32263122	    125.61347419	     62.58740002
      2.56666670	      9.80805651	      0.67837277	      0.29045426	     -0.10226279	      0.79839396	      0.32269635	     16.10190435	     12.09488047	      3.75631068	     54.95535685	      0.95915192	     24.91766538	    -21.15080874	     -7.50000001	     32.26864574	     -3.19023027	      1.02976887	      9.69911332	      0.16928146	      0.21380625	      4.83700504	     -7.50000001	     -8.80266939	      2.29551218	      0.87277363	     32.35142889	      4.17098683	     57.45356417	    125.82077653	     80.46426612	     42.75128511	     11.78322126	     71.33794303	    125.56318550	     62.72826270
      2.58333330	      9.84146110	      0.48425444	      0.43530457	     -0.10324409	      0.79454352	      0.32391344	     16.73729559	     12.64025569	      3.68081512	     56.14764305	      0.97996124	     25.58106394	    -21.48898111	     -7.50000001	     32.48910540	     -3.37813556	      1.28095773	      9.74342636	      0.17005487	      0.06503656	      4.73301486	     -7.50000001	     -9.02021541	      2.43982937	      0.63386842	     32.29111588	      4.28147522	     57.73396717	    126.21009396	     80.37331997	     42.78357475	     11.89339129	     71.24323749	    125.52989156	     62.68971326
